# written by convert_mb_to_amc()
:FULLY-SPECIFIED
:DEGREES
137
upperback -1.676337 -6.122288 4.257733
rfoot -27.378271 -30.669277
lradius 47.720604
lthumb 10.648623 -324.832855
rradius 29.292137
lwrist -6.949636
rhand -25.390820 -25.156942
rhumerus -42.483829 10.803448 -36.610661
lowerneck -4.338461 8.772808 9.611889
lhand -15.535116 5.457394
ltibia 49.666454
head 6.700733 6.345541 -4.355610
rwrist 6.669508
lfingers 7.125020
rtoes -7.881370
lowerback -1.386812 -4.747455 13.928004
rfingers 7.125020
lclavicle 0.000000 -0.000000
upperneck 14.938038 13.303901 -12.087439
rfemur -49.555935 18.225842 -7.966842
thorax -2.000937 -3.115199 -3.177707
rclavicle 0.000000 -0.000000
rtibia 34.446327
lfoot -15.245500 27.097700
lhumerus -29.063026 -35.771133 80.592346
rthumb 1.134080 -775.133850
root 31.807043 16.703217 2.421704 924.494202 429.751617 197.681641
ltoes 16.550343
lfemur 1.575259 -13.554531 -27.565647
138
upperback -1.848830 -4.028260 2.757683
rfoot -18.871944 -14.378232
lradius 21.576000
lthumb 9.147798 -320.344910
rradius 26.485926
lwrist -18.035521
rhand -26.066015 -27.070517
rhumerus -38.528744 7.137779 -38.877518
lowerneck -4.602558 8.236796 8.463978
lhand -17.090725 9.873319
ltibia 87.728935
head 6.397381 6.184597 -4.955846
rwrist 11.728720
lfingers 7.125020
rtoes -12.933902
lowerback 0.704634 -3.441885 14.405091
rfingers 7.125020
lclavicle 0.000000 0.000000
upperneck 13.601108 13.161805 -14.512675
rfemur -36.446060 7.306912 4.872600
thorax -3.185025 -2.189796 -4.952437
rclavicle 0.000000 0.000000
rtibia 51.290543
lfoot -15.245500 27.097700
lhumerus -29.897814 -6.570909 58.681870
rthumb 0.481978 -777.049805
root 36.174416 16.769739 2.796700 909.756226 405.865936 186.263382
ltoes 17.106791
lfemur -23.561140 -7.250260 -16.681658
139
upperback -1.377252 -2.005250 3.291999
rfoot -29.313353 -23.364918
lradius 20.033855
lthumb 10.700477 -318.421600
rradius 30.149345
lwrist -20.366531
rhand -24.987553 -22.294191
rhumerus -24.489952 11.010621 -55.154964
lowerneck -4.473505 7.046128 7.769419
lhand -15.481355 11.870659
ltibia 66.895714
head 4.631097 5.065387 -4.649718
rwrist 9.295292
lfingers 7.125020
rtoes -5.253576
lowerback 1.608812 -2.059207 13.788356
rfingers 7.125020
lclavicle 0.000000 -0.000000
upperneck 9.306636 10.642948 -13.070312
rfemur -24.426897 -8.192397 18.083946
thorax -2.758127 -1.090007 -4.158432
rclavicle 0.000000 -0.000000
rtibia 54.105713
lfoot -15.245500 27.097700
lhumerus -39.716465 -1.881290 53.925526
rthumb 1.523558 -772.268616
root 39.171261 16.914154 1.831768 912.519531 383.750122 188.489670
ltoes 9.019253
lfemur -61.249119 11.978837 -29.634455
140
upperback -1.519989 2.114980 1.145474
rfoot -28.830233 -31.552889
lradius 16.783371
lthumb 13.675939 -318.620453
rradius 30.048780
lwrist -26.643803
rhand -24.252209 -20.167332
rhumerus -11.127850 10.805454 -71.991684
lowerneck -2.002554 8.839315 8.560655
lhand -12.395418 11.849683
ltibia 36.050766
head 3.611269 6.257997 -4.237427
rwrist 12.547510
lfingers 7.125020
rtoes -10.535609
lowerback 0.741532 1.314535 12.077020
rfingers 7.125020
lclavicle -0.000000 -0.000000
upperneck 6.760732 12.684258 -11.391384
rfemur -1.973384 -4.593897 25.086514
thorax -1.641090 0.955462 -5.605934
rclavicle -0.000000 -0.000000
rtibia 35.610580
lfoot -15.245500 27.097700
lhumerus -52.795479 5.024341 48.026234
rthumb 2.233787 -770.135559
root 40.960934 17.071341 -1.121924 913.216492 375.849731 191.701355
ltoes 22.216465
lfemur -59.435692 2.382691 -7.874541
141
upperback -3.064570 4.758000 -2.916800
rfoot 16.041201 -15.623300
lradius 15.735100
lthumb 16.008600 -318.207001
rradius 31.058300
lwrist -26.220699
rhand -24.281601 -19.230301
rhumerus -22.667700 11.126500 -82.548203
lowerneck -0.664606 11.074700 10.583600
lhand -9.974120 12.434800
ltibia 43.689098
head 3.388410 7.333150 -5.609100
rwrist 13.613900
lfingers 7.125020
rtoes -4.954580
lowerback -0.754339 3.632120 5.970710
rfingers 7.125020
lclavicle 0.000000 0.000000
upperneck 4.310720 15.206300 -15.198100
rfemur 5.998450 -5.624180 17.623501
thorax -2.015190 2.184280 -6.395490
rclavicle 0.000000 0.000000
rtibia 41.615601
lfoot -15.245500 27.097700
lhumerus -55.687199 9.513810 50.243301
rthumb 2.205370 -769.198975
root 41.465214 17.601086 -5.796663 911.112000 353.450012 183.352997
ltoes 16.861401
lfemur -51.538200 -2.391940 -25.863501
142
upperback -2.470123 4.413556 -2.618240
rfoot -22.394545 -33.675163
lradius 19.835793
lthumb 14.490108 -319.050201
rradius 28.268545
lwrist -15.911713
rhand -20.883921 -18.362028
rhumerus -28.390110 8.589159 -86.242111
lowerneck -0.663399 10.181753 9.756726
lhand -11.550560 11.475621
ltibia 49.522953
head 3.076142 6.821018 -4.918492
rwrist 17.493361
lfingers 7.125020
rtoes -0.861525
lowerback -0.012755 3.289647 7.237566
rfingers 7.125020
lclavicle 0.000000 0.000000
upperneck 4.554697 13.997889 -12.998669
rfemur -23.193336 -18.077616 17.737501
thorax -1.804811 2.041983 -6.829964
rclavicle 0.000000 0.000000
rtibia 63.693542
lfoot -15.245500 27.097700
lhumerus -49.179462 5.801992 62.118702
rthumb 5.486421 -768.271057
root 41.543983 17.924282 -9.650932 909.329834 317.813141 183.242737
ltoes 16.941742
lfemur -39.262615 -19.159992 -24.129429
143
upperback -2.654787 2.830003 -1.948243
rfoot -13.735044 -39.634361
lradius 20.344667
lthumb 13.885219 -318.218964
rradius 30.803932
lwrist -17.845381
rhand -21.949690 -19.737783
rhumerus -34.679638 4.789703 -85.409889
lowerneck -1.179144 7.244430 8.533926
lhand -12.178234 12.265156
ltibia 47.514999
head 2.092013 4.835749 -4.009301
rwrist 15.472288
lfingers 7.125020
rtoes 1.795506
lowerback -0.349594 2.120410 5.662199
rfingers 7.125020
lclavicle -0.000000 -0.000000
upperneck 3.352661 9.824118 -9.721447
rfemur -30.183741 9.161998 0.936549
thorax -2.174643 1.266831 -5.229364
rclavicle -0.000000 -0.000000
rtibia 44.297062
lfoot -15.245500 27.097700
lhumerus -44.229771 5.871285 60.698540
rthumb 4.457345 -769.670288
root 41.344101 18.284771 -13.565946 894.415344 279.703979 198.248215
ltoes 16.128508
lfemur -32.808903 -38.952789 -10.829777
144
upperback -2.381563 -0.628792 -1.397745
rfoot -17.025114 -37.257259
lradius 19.535139
lthumb 14.713143 -318.575195
rradius 33.035892
lwrist -20.655346
rhand -20.861277 -20.427498
rhumerus -40.651203 2.825050 -86.764122
lowerneck -3.045500 2.382102 2.107344
lhand -11.318996 11.966778
ltibia 42.498558
head 1.769809 1.562780 -0.740521
rwrist 13.265026
lfingers 7.125020
rtoes -2.465891
lowerback -0.637790 -0.457057 3.608271
rfingers 7.125020
lclavicle 0.000000 0.000000
upperneck 3.825947 3.139504 -1.475461
rfemur -18.221483 15.130352 5.491661
thorax -2.145791 -0.407174 -3.455047
rclavicle 0.000000 0.000000
rtibia 34.663479
lfoot -15.245500 27.097700
lhumerus -36.315903 5.590850 59.209641
rthumb 5.508291 -770.335815
root 40.750965 18.426645 -17.611908 740.442566 297.241791 351.981201
ltoes 7.852874
lfemur -35.552456 -37.216278 6.028186
145
upperback -2.494805 -2.659433 -0.926090
rfoot -39.865772 -41.404819
lradius 22.714930
lthumb 12.821508 -318.484009
rradius 32.899525
lwrist -17.197069
rhand -21.030106 -19.199776
rhumerus -42.215252 7.427941 -88.663139
lowerneck -1.217992 -1.236281 -1.882543
lhand -13.281844 11.929984
ltibia 49.409626
head 1.077382 -0.830557 1.334609
rwrist 12.536457
lfingers 7.125020
rtoes 7.566004
lowerback -0.931782 -1.980581 4.363197
rfingers 7.125020
lclavicle -0.000000 0.000000
upperneck 2.665689 -1.705354 3.351387
rfemur -16.761408 3.940634 21.687298
thorax -2.289740 -1.436757 -3.363289
rclavicle -0.000000 0.000000
rtibia 35.086132
lfoot -15.245500 27.097700
lhumerus -35.636673 2.525127 64.744812
rthumb 5.345291 -769.112427
root 40.327293 18.272253 -21.108372 737.619751 318.649475 353.755676
ltoes 7.966773
lfemur -40.239838 -13.364475 -0.329970
146
upperback -3.018150 -3.546340 -0.737643
rfoot -43.898899 -40.331902
lradius 20.395100
lthumb 13.892000 -319.235992
rradius 31.667700
lwrist -23.114700
rhand -23.581699 -21.637501
rhumerus -44.887600 0.040998 -81.466103
lowerneck -1.590540 -2.798090 -2.363860
lhand -12.171200 11.248400
ltibia 55.027199
head 1.348380 -1.871710 1.635900
rwrist 9.009530
lfingers 7.125020
rtoes 9.635270
lowerback -1.075850 -2.641240 2.977880
rfingers 7.125020
lclavicle 0.000000 0.000000
upperneck 3.025860 -3.812010 4.149720
rfemur -20.906700 -1.076200 25.725201
thorax -2.728760 -1.864050 -2.369280
rclavicle 0.000000 0.000000
rtibia 40.842201
lfoot -15.245500 27.097700
lhumerus -42.647499 6.794630 69.239998
rthumb 2.881350 -771.598022
root 40.184513 18.204849 -22.842854 734.056030 325.436005 355.575012
ltoes 4.532420
lfemur -34.261101 0.702219 -20.038601
